<svg width="87" height="90" viewBox="0 0 87 90" fill="none" xmlns="http://www.w3.org/2000/svg">
<path d="M19.5294 43.8345C19.6125 37.8138 22.1904 31.5598 27.4217 26.47C30.6249 23.3534 34.5038 21.3859 38.8049 20.2296C41.675 19.458 44.6075 19.2089 47.5514 19.4583C56.6669 20.2305 63.6246 24.5367 68.2749 32.4373C69.8926 35.1857 70.8645 38.1906 71.2862 41.3631C72.1223 47.6531 70.8769 53.4882 67.4699 58.8509C67.1171 59.4062 66.7572 59.9583 66.3724 60.4916C66.0654 60.9173 65.6004 61.0818 65.2321 60.9526C64.8293 60.8113 64.5416 60.3808 64.5036 59.8919C64.4615 59.3502 64.6581 58.8938 64.9599 58.4607C66.2901 56.552 67.3528 54.505 68.083 52.2938C68.9869 49.5563 69.4285 46.7333 69.2358 43.8636C68.6831 35.6343 64.8276 29.3329 57.839 25.0022C53.7146 22.4465 49.1531 21.4309 44.3148 21.697C39.5636 21.9583 35.1995 23.4126 31.3686 26.2406C26.4021 29.9068 23.2582 34.8023 22.1825 40.8967C21.0589 47.2623 22.4061 53.1307 26.1234 58.4437C26.3358 58.7472 26.4864 59.1611 26.4921 59.5263C26.5003 60.0548 26.1022 60.4349 25.6114 60.5407C25.0795 60.6553 24.6354 60.4851 24.3638 60.0213C23.492 58.5329 22.5391 57.0799 21.8074 55.5239C20.2037 52.1137 19.5364 48.7848 19.5294 43.8345Z" fill="#F9A1A5"/>
<path d="M44.1414 52.2653C44.4753 51.2662 44.7974 50.302 45.1191 49.3392C44.5931 49.1886 44.1244 49.0818 43.675 48.921C41.8547 48.2695 41.1347 46.8648 41.6959 45.0314C42.1538 43.5357 43.0943 42.3449 44.183 41.2603C44.2419 41.2016 44.4001 41.1772 44.4775 41.2126C45.4656 41.6641 46.432 41.5948 47.4048 41.0964C48.6763 42.3788 49.8506 43.7045 50.2311 45.5478C50.4785 46.7462 50.1217 47.7252 49.0889 48.3484C48.451 48.7333 47.698 48.9257 47.0028 49.219C46.8783 49.2715 46.7205 49.3747 46.6847 49.4882C46.1307 51.2427 45.5875 53.0007 45.0553 54.762C44.0907 57.9538 44.1892 61.0748 45.688 64.1035C46.06 64.855 45.9613 64.9978 45.1283 65.1284C44.7385 65.1895 44.4907 65.0608 44.301 64.7226C43.5469 63.3784 43.0828 61.9432 42.8965 60.4141C42.6444 58.3463 42.9427 56.3332 43.4597 54.336C43.5056 54.159 43.445 53.9108 43.347 53.7479C42.9931 53.1591 42.4089 52.8908 41.7718 52.7209C40.939 52.4987 40.0941 52.3243 39.3823 51.7782C38.6803 51.2396 38.1634 50.5652 37.7565 49.7903C37.5883 49.4698 37.6963 49.3292 38.0164 49.2201C39.7609 48.6258 41.7982 49.2028 43.0468 50.6989C43.4354 51.1647 43.7467 51.6951 44.1414 52.2653Z" fill="#F9A1A5"/>
<path d="M47.4293 35.8143C46.4382 35.1958 45.4508 35.1009 44.427 35.6861C44.3383 35.7368 44.1326 35.7141 44.0611 35.6441C42.7674 34.3764 41.7822 32.9366 41.5964 31.0704C41.4402 29.5024 42.2849 28.1789 43.8206 27.6304C44.9932 27.2116 46.1989 27.1544 47.4021 27.4695C49.6444 28.0567 50.5889 29.7794 49.9504 32.056C49.58 33.3763 48.8165 34.45 47.8642 35.4066C47.7312 35.5403 47.5891 35.665 47.4293 35.8143Z" fill="#F9A1A5"/>
<path d="M61.1526 60.8625C61.5671 61.4054 62.0063 61.986 62.4513 62.5622C62.8747 63.1106 62.8863 63.5105 62.4796 63.8626C62.0432 64.2404 61.3147 64.2149 60.9391 63.7641C60.2839 62.9779 59.658 62.1672 59.0196 61.367C58.9467 61.2757 58.8893 61.1481 58.794 61.1045C58.6733 61.0492 58.5126 61.0291 58.3862 61.061C58.3255 61.0764 58.2714 61.2457 58.2698 61.3462C58.259 62.0045 58.2685 62.6631 58.2613 63.3214C58.2554 63.859 58.0607 64.051 57.5214 64.0769C56.2946 64.1358 56.2473 64.0924 56.2473 62.8776C56.2473 60.4048 56.2486 57.932 56.2493 55.4592C56.2494 54.8933 56.3812 54.7375 56.9364 54.7485C58.0746 54.7711 59.233 54.6922 60.3459 54.8779C62.6249 55.2582 63.6933 57.9981 62.3238 59.8239C62.0361 60.2076 61.5958 60.4769 61.1526 60.8625ZM58.2822 59.0728C58.7898 59.0728 59.2542 59.0764 59.7185 59.0719C60.4009 59.0652 60.8077 58.7386 60.8894 58.1399C60.9558 57.6536 60.5551 57.0116 60.0145 56.9332C59.4521 56.8516 58.8686 56.915 58.2822 56.915V59.0728Z" fill="#F9A1A5"/>
<path d="M45.7593 59.4266C45.8412 57.3928 46.6096 55.8575 48.4036 55.0463C51.0128 53.8665 53.9059 55.4884 54.3919 58.3321C54.7216 60.2611 54.2241 61.9338 52.6698 63.1556C50.3403 64.9867 46.7043 63.9051 45.8935 60.4482C45.8074 60.081 45.7934 59.6969 45.7593 59.4266ZM47.8061 59.3601C47.8061 59.4771 47.7976 59.5949 47.8074 59.7111C47.8956 60.7554 48.6685 61.6686 49.6349 61.875C50.6921 62.1008 51.5911 61.7021 52.1233 60.7644C52.4377 60.2105 52.5312 59.6088 52.4604 58.9834C52.325 57.7888 51.313 56.7925 50.2206 56.7645C48.8262 56.7287 47.7985 57.8285 47.8061 59.3601Z" fill="#F9A1A5"/>
<path d="M30.1543 56.8562V58.5621C30.5419 58.5621 30.9158 58.5633 31.2896 58.5618C31.7872 58.5598 32.2849 58.552 32.7825 58.5536C33.4985 58.5559 33.8277 58.8848 33.8349 59.5957C33.8421 60.2975 33.5432 60.6071 32.8226 60.6144C31.9467 60.6232 31.0707 60.6165 30.1243 60.6165C30.1243 61.4577 30.1233 62.2567 30.1248 63.0557C30.1255 63.407 30.1926 63.8671 29.7946 63.9693C29.3496 64.0835 28.8363 64.0788 28.3859 63.9778C28.0314 63.8983 28.0621 63.4678 28.0626 63.1444C28.0667 60.8319 28.0733 58.5195 28.0786 56.207C28.0794 55.8997 28.0653 55.5918 28.0798 55.2852C28.096 54.9425 28.2749 54.7446 28.6364 54.7446C30.3634 54.7447 32.0905 54.7388 33.8175 54.7476C34.268 54.7499 34.5107 55.0006 34.5466 55.4544C34.5615 55.6432 34.556 55.8347 34.5458 56.0242C34.5152 56.5966 34.274 56.8399 33.6936 56.847C32.6985 56.8592 31.7032 56.8541 30.7079 56.8561C30.5358 56.8565 30.3638 56.8562 30.1543 56.8562Z" fill="#F9A1A5"/>
<path d="M38.18 61.9105C39.1947 61.9105 40.1155 61.8947 41.0351 61.9201C41.3135 61.9278 41.6172 61.9987 41.8576 62.1331C42.1095 62.2738 42.2087 63.2296 42.0513 63.5883C41.8806 63.9772 41.5531 64.0689 41.1505 64.0655C39.7457 64.0536 38.3407 64.0655 36.9358 64.0635C36.3537 64.0627 36.1372 63.8537 36.1365 63.2753C36.1332 60.6556 36.1345 58.036 36.1379 55.4164C36.1386 54.9363 36.3175 54.7635 36.7993 54.752C37.048 54.7461 37.2969 54.7407 37.5455 54.7452C38.0435 54.7543 38.1989 54.9163 38.1972 55.4047C38.1909 57.2631 38.1855 59.1215 38.1801 60.98C38.1793 61.2696 38.18 61.5592 38.18 61.9105Z" fill="#F9A1A5"/>
<path d="M48.7568 37.4338C48.5288 37.0077 48.3719 36.7144 48.2271 36.4437C48.7702 35.7675 49.3862 35.1281 49.8451 34.3909C50.2546 33.7333 50.5587 32.9885 50.7862 32.2445C51.0945 31.2367 51.5489 30.705 52.4199 30.596C53.2723 30.4893 54.2471 31.0287 54.6438 31.8608C55.2624 33.1582 54.8625 34.3065 54.0631 35.3684C53.632 35.9412 53.0641 36.3819 52.3732 36.569C51.167 36.8955 49.9423 37.1541 48.7568 37.4338Z" fill="#F9A1A5"/>
<path d="M42.9252 37.4492C41.7326 37.1557 40.4667 36.9568 39.2863 36.5247C37.8547 36.0005 37.0235 34.861 36.7848 33.3397C36.5532 31.8642 37.6865 30.5356 39.1238 30.5941C39.8512 30.6237 40.4055 30.959 40.7044 31.6513C40.7564 31.7718 40.8192 31.892 40.8449 32.0188C41.1837 33.6878 42.0947 35.0215 43.2781 36.1979C43.35 36.2694 43.4131 36.3497 43.4578 36.4003C43.285 36.7405 43.1229 37.0598 42.9252 37.4492Z" fill="#F9A1A5"/>
<path d="M42.9646 39.4732C43.1442 39.8119 43.3351 40.1716 43.5505 40.5776C43.2849 40.8709 42.9932 41.191 42.7038 41.5131C41.9034 42.4038 41.2165 43.3804 40.9018 44.5405C40.6868 45.333 40.2016 45.6862 39.4619 45.7862C38.6381 45.8976 37.9524 45.6173 37.4794 44.9288C37.1254 44.4135 36.9504 43.8652 37.322 43.2503C37.4598 43.0223 37.4956 42.7264 37.5512 42.456C37.842 41.0413 38.8264 40.3986 40.1362 40.1083C41.0732 39.9007 42.0091 39.688 42.9646 39.4732Z" fill="#F9A1A5"/>
<path d="M48.1909 40.4784C48.351 40.1379 48.511 39.7973 48.6494 39.5029C49.7143 39.7244 50.7837 39.9385 51.8492 40.1709C52.946 40.4101 53.7186 41.0323 54.0854 42.1183C54.1836 42.409 54.296 42.6951 54.4089 42.9805C54.7753 43.9073 54.5066 44.8306 53.6717 45.3879C53.1548 45.7329 52.5821 45.9031 51.963 45.6878C51.5594 45.5475 51.1731 45.3817 51.0426 44.8986C50.6292 43.3675 49.7135 42.1448 48.6237 41.0367C48.4614 40.8716 48.2456 40.7591 48.0545 40.6222C48.1 40.5743 48.1454 40.5263 48.1909 40.4784Z" fill="#F9A1A5"/>
<path d="M36.721 41.674C35.5943 40.9155 34.8652 39.94 34.8507 38.5665C34.8367 37.229 35.2525 36.0676 36.4557 35.2764C36.6586 35.5603 36.833 35.8441 37.0461 36.0951C37.8367 37.0264 38.8791 37.5309 40.0468 37.795C40.7731 37.9593 41.5081 38.0851 42.2385 38.2316C42.3904 38.262 42.5392 38.3078 42.7108 38.4496C42.5674 38.5185 42.4308 38.6158 42.2797 38.6516C41.413 38.8565 40.5431 39.0476 39.6739 39.2419C38.3618 39.5353 37.396 40.2641 36.8298 41.4978C36.8071 41.5472 36.7726 41.5913 36.721 41.674Z" fill="#F9A1A5"/>
<path d="M49.0065 38.3373C49.8888 38.1575 50.7732 37.9876 51.6529 37.7958C53.1719 37.4647 54.429 36.7467 55.2245 35.2576C56.1336 35.8263 56.6075 36.6367 56.7648 37.6411C57.0261 39.3097 56.5039 40.6564 55.0478 41.6333C54.6897 40.8795 54.2199 40.2416 53.5021 39.8163C52.6775 39.3277 51.7536 39.1841 50.8333 39.0138C50.3327 38.9211 49.8394 38.7861 49.3466 38.6558C49.2164 38.6214 49.1004 38.5335 48.9779 38.4702C48.9874 38.4259 48.9969 38.3816 49.0065 38.3373Z" fill="#F9A1A5"/>
<path d="M43.5696 38.3798C43.553 37.2437 44.4388 36.1536 45.8475 36.1518C47.1642 36.15 48.1231 37.1624 48.101 38.449C48.0798 39.6796 47.0066 40.6997 45.7499 40.6839C44.572 40.6692 43.5542 39.5936 43.5696 38.3798Z" fill="#F9A1A5"/>
<path d="M65.4715 44.9423C65.4702 45.6937 64.7732 46.3558 63.9778 46.3612C63.2395 46.3662 62.5942 45.6768 62.6001 44.8893C62.6058 44.1305 63.2755 43.4985 64.0626 43.5093C64.8467 43.5201 65.4729 44.1569 65.4715 44.9423Z" fill="#F9A1A5"/>
<path d="M25.677 44.9279C25.6678 44.1645 26.2839 43.5256 27.0444 43.5098C27.8787 43.4925 28.5536 44.1351 28.5481 44.9415C28.543 45.6828 27.8212 46.3715 27.0531 46.3681C26.3416 46.3649 25.686 45.6788 25.677 44.9279Z" fill="#F9A1A5"/>
<path d="M36.8647 68.5055C36.8647 68.0972 36.8651 67.689 36.8645 67.2808C36.8642 67.0348 36.9485 66.8949 37.2315 66.9338C37.4327 66.9614 37.6393 66.9483 37.8433 66.9574C38.7642 66.9985 39.3861 67.6227 39.3952 68.5133C39.4045 69.4154 38.7718 70.0937 37.8503 70.1323C36.7423 70.1787 36.8952 70.2398 36.8859 69.2057C36.8838 68.9723 36.8856 68.7389 36.8856 68.5055C36.8786 68.5055 36.8716 68.5055 36.8647 68.5055ZM37.6335 69.4163C38.0495 69.4718 38.4001 69.3371 38.532 68.9961C38.6344 68.7314 38.6225 68.3612 38.5187 68.0932C38.3846 67.747 38.046 67.5994 37.6335 67.6932V69.4163Z" fill="#F9A1A5"/>
<path d="M53.1596 69.1383C53.1461 69.9374 53.021 70.0689 52.2115 70.1346C51.4614 70.1955 50.7733 69.6581 50.6375 68.9054C50.4789 68.027 50.9105 67.2034 51.7118 67.0004C52.0254 66.9209 52.396 66.9902 52.7215 67.0698C52.8587 67.1034 53.0681 67.3889 53.0335 67.473C52.9381 67.7051 52.7208 67.8321 52.4235 67.7368C51.9699 67.5913 51.645 67.7321 51.4472 68.1249C51.2496 68.5176 51.3541 69.0326 51.7139 69.2573C51.8628 69.3503 52.0641 69.3838 52.2437 69.3909C52.3146 69.3937 52.3912 69.2509 52.4652 69.1743C52.389 69.1057 52.3218 69.02 52.2339 68.9737C52.1608 68.9352 52.062 68.9485 51.9768 68.929C51.6954 68.8645 51.719 68.5363 51.8224 68.5074C52.1825 68.4068 52.572 68.3834 52.9486 68.3937C53.0229 68.3957 53.1036 68.6737 53.1543 68.833C53.1838 68.9259 53.1597 69.036 53.1596 69.1383Z" fill="#F9A1A5"/>
<path d="M54.483 68.7943C54.483 69.1105 54.4835 69.4266 54.4829 69.7427C54.4824 69.9769 54.409 70.128 54.1323 70.1389C53.8559 70.1497 53.7658 70.0178 53.7658 69.7734C53.7659 68.8434 53.7659 67.9134 53.7659 66.8362C54.5004 67.2538 54.7583 67.9777 55.3564 68.4107C55.372 68.0568 55.3763 67.7281 55.403 67.4013C55.445 66.8867 55.5265 66.8421 56.0841 67.0287C56.0841 67.9476 56.0886 68.8809 56.0773 69.814C56.0762 69.9095 55.9934 70.0696 55.9261 70.0824C55.841 70.0986 55.7102 70.0158 55.6387 69.9389C55.2814 69.5543 54.9371 69.1577 54.5882 68.7654C54.5532 68.775 54.5181 68.7847 54.483 68.7943Z" fill="#F9A1A5"/>
<path d="M40.963 70.1406C40.937 69.9512 40.8993 69.7951 40.8969 69.6384C40.885 68.8772 40.8912 68.1157 40.8723 67.3548C40.8647 67.0511 40.9673 66.9415 41.2791 66.9564C41.7463 66.9788 42.2156 66.9566 42.6841 66.9527C42.8946 66.9509 43.1066 66.9356 43.1049 67.2474C43.1033 67.5582 42.9123 67.5915 42.6655 67.5884C42.4024 67.5851 42.1391 67.6099 41.8757 67.6172C41.5907 67.6252 41.5656 67.7971 41.5718 68.0326C41.5788 68.2956 41.697 68.3642 41.932 68.327C42.0325 68.3112 42.1797 68.2702 42.2298 68.3188C42.3548 68.4402 42.4697 68.5966 42.517 68.7598C42.5333 68.8162 42.3484 68.9524 42.2351 69.0165C42.1694 69.0537 42.0518 68.9927 41.9783 69.0241C41.8416 69.0826 41.72 69.1764 41.5921 69.2555C41.7132 69.3227 41.8283 69.43 41.9564 69.4486C42.2302 69.4883 42.5187 69.4476 42.7852 69.509C42.9234 69.5408 43.097 69.702 43.1322 69.8367C43.1977 70.0871 42.9996 70.1443 42.7803 70.1424C42.1829 70.1372 41.5854 70.1406 40.963 70.1406Z" fill="#F9A1A5"/>
<path d="M45.5942 70.2532C45.3372 70.1342 45.0607 70.0431 44.8323 69.8833C44.7328 69.8136 44.732 69.6029 44.6864 69.4562C44.853 69.4141 45.0206 69.3351 45.186 69.3396C45.38 69.3448 45.572 69.4553 45.7647 69.4549C45.8564 69.4547 45.9478 69.3033 46.0394 69.2204C45.9646 69.1428 45.9028 69.0393 45.8119 68.9936C45.6703 68.9226 45.5088 68.8916 45.3562 68.8424C44.8007 68.6631 44.488 68.2188 44.5785 67.7383C44.6716 67.2438 45.2189 66.8399 45.7621 66.9135C45.9987 66.9456 46.2385 67.0538 46.4428 67.1818C46.5458 67.2463 46.5729 67.4321 46.6343 67.563C46.4842 67.6306 46.3352 67.7491 46.1838 67.7521C46.0208 67.7554 45.8551 67.6052 45.6915 67.607C45.5612 67.6084 45.4322 67.7375 45.3026 67.8099C45.3825 67.9136 45.4457 68.0406 45.5475 68.114C45.6353 68.1773 45.7668 68.1808 45.8796 68.2085C46.5223 68.366 46.8307 68.7483 46.7687 69.3118C46.7135 69.8122 46.2223 70.1879 45.5942 70.2532Z" fill="#F9A1A5"/>
<path d="M49.14 68.5513C49.14 68.9596 49.1373 69.368 49.1411 69.7763C49.143 69.9926 49.0917 70.133 48.83 70.1444C48.5521 70.1566 48.4617 70.015 48.4607 69.7792C48.4572 68.9335 48.4567 68.0877 48.4623 67.242C48.4638 67.0132 48.5863 66.8982 48.8267 66.9181C49.0558 66.9371 49.1584 67.0423 49.1511 67.2826C49.1382 67.7051 49.1475 68.1283 49.1475 68.5513C49.145 68.5513 49.1425 68.5513 49.14 68.5513Z" fill="#F9A1A5"/>
<path d="M58.2822 59.0727V56.915C58.8686 56.915 59.452 56.8516 60.0145 56.9332C60.5551 57.0116 60.9558 57.6536 60.8894 58.1399C60.8077 58.7386 60.4009 59.0652 59.7185 59.0719C59.2542 59.0764 58.7898 59.0727 58.2822 59.0727Z" fill="white"/>
<path d="M47.806 59.3601C47.7985 57.8285 48.8262 56.7287 50.2205 56.7645C51.313 56.7925 52.325 57.7888 52.4604 58.9834C52.5312 59.6088 52.4377 60.2105 52.1233 60.7644C51.5911 61.7021 50.6921 62.1008 49.6349 61.875C48.6685 61.6686 47.8956 60.7554 47.8074 59.7111C47.7976 59.5949 47.806 59.4771 47.806 59.3601Z" fill="white"/>
<path d="M37.6335 69.4163V67.6932C38.046 67.5993 38.3846 67.747 38.5187 68.0932C38.6225 68.3612 38.6344 68.7314 38.532 68.9961C38.4001 69.3371 38.0495 69.4717 37.6335 69.4163Z" fill="white"/>
</svg>
